Coordinates
version=1
nRows=37
nColumns=38
inDegrees=no

Units are S.I. units (second, meters, Newtons, ...)
If the header above contains a line with 'inDegrees', this indicates whether rotational values are in degrees (yes) or radians (no).

endheader
time	pelvis_tilt	pelvis_list	pelvis_rotation	pelvis_tx	pelvis_ty	pelvis_tz	hip_flexion_r	hip_adduction_r	hip_rotation_r	knee_angle_r	ankle_angle_r	subtalar_angle_r	mtp_angle_r	hip_flexion_l	hip_adduction_l	hip_rotation_l	knee_angle_l	ankle_angle_l	subtalar_angle_l	mtp_angle_l	lumbar_extension	lumbar_bending	lumbar_rotation	arm_flex_r	arm_add_r	arm_rot_r	elbow_flex_r	pro_sup_r	wrist_flex_r	wrist_dev_r	arm_flex_l	arm_add_l	arm_rot_l	elbow_flex_l	pro_sup_l	wrist_flex_l	wrist_dev_l
1.22	0.0134054	1.24306	-1.45099	0.62987	0.458027	1.08365	0.029424	0.0954765	0.0211687	0.479556	-0.199545	0	0	-0.30717	-0.251586	-0.261107	1.10867	-0.473048	0	0	-0.413873	0.113066	-0.0927546	0.58833	-0.527909	0.650732	1.09319	0.591925	0	0	0.316649	-0.436381	0.164287	1.11564	0.758606	0	0
1.23	0.0167977	1.24142	-1.45601	0.629984	0.446841	1.08512	0.0185858	0.0940477	0.0117871	0.483964	-0.197963	0	0	-0.283417	-0.255057	-0.243702	1.14167	-0.497205	0	0	-0.416687	0.109727	-0.0920606	0.590436	-0.527029	0.654811	1.09093	0.59002	0	0	0.315873	-0.438403	0.165555	1.11611	0.756412	0	0
1.24	0.021488	1.24015	-1.46179	0.63037	0.435747	1.08664	0.00710774	0.0919275	0.00287227	0.487228	-0.195962	0	0	-0.260314	-0.256611	-0.226332	1.16867	-0.509873	0	0	-0.419465	0.106386	-0.0918543	0.591903	-0.526608	0.65754	1.08969	0.589135	0	0	0.314877	-0.439802	0.16604	1.11711	0.755289	0	0
1.25	0.02533	1.23967	-1.46679	0.630696	0.424742	1.08819	-0.00430041	0.0905472	-0.00317703	0.488557	-0.194352	0	0	-0.237273	-0.257456	-0.210245	1.19169	-0.510125	0	0	-0.421761	0.102985	-0.0913851	0.592739	-0.525932	0.659131	1.08851	0.588825	0	0	0.31392	-0.441132	0.166236	1.11846	0.754508	0	0
1.26	0.0288916	1.23951	-1.47101	0.631153	0.413794	1.08982	-0.0164364	0.0893013	-0.00792052	0.487796	-0.19265	0	0	-0.214438	-0.257571	-0.195845	1.21306	-0.496864	0	0	-0.423791	0.0997568	-0.0913915	0.593189	-0.525004	0.660011	1.08714	0.589415	0	0	0.312883	-0.44241	0.166444	1.11997	0.753814	0	0
1.27	0.0328591	1.23903	-1.4751	0.631825	0.402892	1.09162	-0.0300337	0.0879898	-0.0121596	0.48457	-0.191232	0	0	-0.192286	-0.257076	-0.184659	1.2329	-0.472587	0	0	-0.426241	0.0966957	-0.0918537	0.593141	-0.523943	0.659648	1.08575	0.591152	0	0	0.311924	-0.443442	0.166769	1.12151	0.753146	0	0
1.28	0.037449	1.23793	-1.47956	0.632674	0.392054	1.09365	-0.0453579	0.0864777	-0.0158412	0.479252	-0.189701	0	0	-0.171028	-0.256057	-0.17813	1.24908	-0.449638	0	0	-0.429593	0.0936145	-0.0921639	0.592384	-0.522974	0.657713	1.08454	0.59415	0	0	0.311673	-0.443912	0.16742	1.1225	0.752834	0	0
1.29	0.042089	1.23637	-1.48414	0.633642	0.38133	1.09589	-0.0622131	0.0844505	-0.0190974	0.473116	-0.187055	0	0	-0.150459	-0.254516	-0.175569	1.26059	-0.427678	0	0	-0.433556	0.090587	-0.0924948	0.593378	-0.522842	0.659246	1.08264	0.591454	0	0	0.311836	-0.444005	0.167995	1.12286	0.752963	0	0
1.3	0.0467621	1.23521	-1.48897	0.634655	0.37075	1.09818	-0.078939	0.0820649	-0.0229959	0.46659	-0.184886	0	0	-0.129805	-0.252546	-0.175465	1.26775	-0.401981	0	0	-0.43736	0.0873249	-0.0925181	0.593779	-0.522161	0.659115	1.08026	0.590606	0	0	0.312705	-0.443906	0.169061	1.12258	0.753568	0	0
1.31	0.0511723	1.23461	-1.49394	0.635693	0.36033	1.10045	-0.0950259	0.0795259	-0.0280203	0.459571	-0.183715	0	0	-0.109421	-0.25058	-0.177509	1.27075	-0.373768	0	0	-0.44086	0.0839236	-0.0920024	0.593806	-0.52129	0.657805	1.07778	0.591411	0	0	0.314295	-0.443457	0.170437	1.1217	0.754472	0	0
1.32	0.0554067	1.23428	-1.4993	0.636764	0.350099	1.10268	-0.110845	0.0768092	-0.0334502	0.45173	-0.183456	0	0	-0.0901221	-0.248661	-0.18212	1.2696	-0.342179	0	0	-0.444419	0.0804436	-0.0908697	0.593883	-0.520415	0.655781	1.07539	0.593152	0	0	0.316693	-0.44276	0.172153	1.12031	0.755181	0	0
1.33	0.0603427	1.23374	-1.5057	0.637961	0.34007	1.10488	-0.126668	0.0729814	-0.0403863	0.443836	-0.18399	0	0	-0.0725654	-0.246102	-0.188899	1.26356	-0.309081	0	0	-0.448545	0.0769213	-0.0895456	0.594455	-0.519776	0.653726	1.07336	0.594927	0	0	0.319751	-0.441839	0.173951	1.11852	0.755625	0	0
1.34	0.066636	1.23327	-1.51347	0.639325	0.33017	1.10697	-0.141642	0.0683393	-0.0512356	0.436221	-0.185373	0	0	-0.0563339	-0.242396	-0.196981	1.25196	-0.277091	0	0	-0.452806	0.073202	-0.0885304	0.595379	-0.519622	0.651992	1.07209	0.596344	0	0	0.323037	-0.440877	0.175556	1.11665	0.756175	0	0
1.35	0.0726621	1.23336	-1.52151	0.640562	0.32039	1.10887	-0.15498	0.0639954	-0.0623062	0.429574	-0.187127	0	0	-0.0406833	-0.238648	-0.206053	1.23463	-0.248655	0	0	-0.456808	0.0691631	-0.0871787	0.596576	-0.519397	0.650391	1.07115	0.59787	0	0	0.326548	-0.440299	0.177022	1.11504	0.756609	0	0
1.36	0.0786403	1.23427	-1.52999	0.641711	0.310686	1.11049	-0.166745	0.0599408	-0.0711004	0.42345	-0.189576	0	0	-0.0254445	-0.234438	-0.215113	1.21158	-0.223265	0	0	-0.46039	0.0646779	-0.0849336	0.59465	-0.517483	0.641526	1.07095	0.610836	0	0	0.330859	-0.440032	0.179426	1.11361	0.756328	0	0
1.37	0.0849493	1.23536	-1.53915	0.642867	0.301079	1.11186	-0.177566	0.0558623	-0.0776667	0.419024	-0.188189	0	0	-0.0112258	-0.229721	-0.224516	1.18269	-0.211131	0	0	-0.463102	0.0601836	-0.0842496	0.60037	-0.518423	0.649016	1.06914	0.600563	0	0	0.33352	-0.440498	0.179777	1.11266	0.755497	0	0
1.38	0.0909972	1.23728	-1.54814	0.644075	0.291525	1.11291	-0.186474	0.0518618	-0.0828438	0.41677	-0.185656	0	0	0.00281172	-0.224555	-0.23371	1.14905	-0.206468	0	0	-0.465063	0.0557523	-0.0832122	0.603491	-0.518095	0.650515	1.06824	0.599299	0	0	0.336428	-0.440911	0.180254	1.11201	0.755027	0	0
1.39	0.0967737	1.23943	-1.55687	0.645362	0.282023	1.11367	-0.194439	0.0478874	-0.0866446	0.416211	-0.181867	0	0	0.0155851	-0.218796	-0.242467	1.11091	-0.205042	0	0	-0.466541	0.0516257	-0.0824886	0.607236	-0.51784	0.652788	1.06738	0.598046	0	0	0.339017	-0.441564	0.180482	1.1118	0.754635	0	0
1.4	0.102575	1.24179	-1.56562	0.646739	0.272544	1.11415	-0.201996	0.0438367	-0.0884007	0.416683	-0.177136	0	0	0.0269167	-0.212163	-0.25055	1.06834	-0.206065	0	0	-0.467533	0.0477582	-0.0819961	0.611499	-0.517542	0.655615	1.06623	0.597135	0	0	0.341338	-0.442419	0.180589	1.11193	0.7544	0	0
1.41	0.107699	1.24424	-1.57366	0.648204	0.263065	1.11438	-0.208972	0.0402128	-0.0888361	0.417865	-0.172442	0	0	0.0367472	-0.204977	-0.257659	1.02202	-0.2077	0	0	-0.46813	0.0443795	-0.0815877	0.615926	-0.517166	0.658477	1.06494	0.596797	0	0	0.343459	-0.443333	0.180616	1.11234	0.754186	0	0
1.42	0.111622	1.2469	-1.58063	0.649728	0.253543	1.11433	-0.215132	0.0370889	-0.0887873	0.420052	-0.167589	0	0	0.0452398	-0.197758	-0.264114	0.973189	-0.208973	0	0	-0.468112	0.0415829	-0.0810003	0.620098	-0.516603	0.660727	1.06352	0.597306	0	0	0.345323	-0.444217	0.180709	1.11293	0.753831	0	0
1.43	0.11457	1.24964	-1.58702	0.651224	0.243943	1.11406	-0.220641	0.0342768	-0.0883646	0.423422	-0.161924	0	0	0.0518904	-0.190426	-0.26976	0.921633	-0.2104	0	0	-0.467583	0.0389665	-0.0798585	0.623512	-0.515486	0.661422	1.06165	0.600201	0	0	0.347095	-0.445019	0.181066	1.11352	0.753146	0	0
1.44	0.115526	1.25194	-1.59173	0.652653	0.234323	1.1136	-0.225819	0.0320944	-0.0876559	0.428791	-0.150945	0	0	0.0564426	-0.183616	-0.274854	0.868346	-0.214213	0	0	-0.466379	0.0369739	-0.0801116	0.633519	-0.515219	0.675623	1.05641	0.587512	0	0	0.346881	-0.446536	0.179476	1.11462	0.751456	0	0
1.45	0.114776	1.25417	-1.59451	0.654241	0.224658	1.11296	-0.231277	0.0304845	-0.0858773	0.433151	-0.143456	0	0	0.0595065	-0.176658	-0.278733	0.814019	-0.214089	0	0	-0.465447	0.0357288	-0.0789153	0.638715	-0.514517	0.679903	1.05332	0.586262	0	0	0.348205	-0.447181	0.179573	1.11516	0.751007	0	0
1.46	0.113175	1.25594	-1.59628	0.65606	0.214977	1.11216	-0.237014	0.0287081	-0.0837919	0.438044	-0.135704	0	0	0.0606344	-0.168998	-0.281469	0.758283	-0.212598	0	0	-0.464752	0.0351615	-0.0774997	0.643959	-0.514523	0.684193	1.05048	0.585224	0	0	0.349952	-0.447175	0.180046	1.11531	0.750837	0	0
1.47	0.110625	1.25743	-1.59709	0.658072	0.205226	1.11122	-0.242883	0.0269462	-0.0810635	0.443547	-0.127854	0	0	0.060126	-0.161054	-0.283587	0.701306	-0.209551	0	0	-0.46403	0.0351433	-0.0756821	0.648848	-0.514915	0.687874	1.04764	0.584565	0	0	0.352026	-0.446419	0.180771	1.11503	0.750508	0	0
1.48	0.106989	1.25915	-1.59689	0.660263	0.19539	1.11009	-0.24878	0.0256655	-0.0762373	0.448535	-0.121106	0	0	0.0590621	-0.15345	-0.285556	0.644308	-0.204857	0	0	-0.462668	0.0356648	-0.0733872	0.653189	-0.515564	0.690764	1.04475	0.584503	0	0	0.354351	-0.445067	0.181995	1.11417	0.750265	0	0
1.49	0.102779	1.26066	-1.59583	0.662596	0.185497	1.10883	-0.254276	0.0240303	-0.0735783	0.455149	-0.11298	0	0	0.056647	-0.145841	-0.285165	0.58575	-0.200663	0	0	-0.461178	0.0365095	-0.0712262	0.657474	-0.516323	0.693698	1.04165	0.586478	0	0	0.357	-0.443519	0.183573	1.1127	0.750367	0	0
1.5	0.0977071	1.26215	-1.59348	0.665103	0.175553	1.10745	-0.259441	0.0220995	-0.0727516	0.462426	-0.106235	0	0	0.0533304	-0.138709	-0.282663	0.52649	-0.195269	0	0	-0.459598	0.0379027	-0.0690719	0.660863	-0.517162	0.69486	1.03907	0.590651	0	0	0.360147	-0.441536	0.185549	1.11067	0.750536	0	0
1.51	0.0920756	1.2635	-1.59045	0.667696	0.165578	1.10591	-0.264337	0.0199342	-0.0726589	0.47083	-0.0963511	0	0	0.0484478	-0.131708	-0.277527	0.464821	-0.191891	0	0	-0.457659	0.0396984	-0.0677948	0.668191	-0.519258	0.704641	1.03539	0.579146	0	0	0.362671	-0.439673	0.186752	1.10845	0.750124	0	0
1.52	0.0854459	1.2657	-1.58647	0.670367	0.155509	1.10416	-0.268174	0.0179508	-0.0728177	0.479431	-0.0887744	0	0	0.0441395	-0.125675	-0.27266	0.404992	-0.185232	0	0	-0.454694	0.0416727	-0.0658171	0.671696	-0.519899	0.706518	1.03219	0.57736	0	0	0.365712	-0.437434	0.188786	1.10582	0.74941	0	0
1.53	0.0788067	1.2679	-1.58221	0.673195	0.145392	1.1023	-0.271828	0.0158018	-0.0743984	0.488833	-0.0805964	0	0	0.0390836	-0.119755	-0.26719	0.346086	-0.177521	0	0	-0.451387	0.0437696	-0.0642331	0.675139	-0.520409	0.708393	1.02881	0.576406	0	0	0.368722	-0.435052	0.190737	1.10282	0.748675	0	0
1.54	0.0723261	1.26995	-1.57786	0.676169	0.135217	1.10037	-0.275346	0.0134616	-0.0774491	0.498844	-0.0727738	0	0	0.032924	-0.114063	-0.260856	0.288853	-0.168236	0	0	-0.447904	0.0459521	-0.0630624	0.678478	-0.520818	0.710122	1.02538	0.576407	0	0	0.371657	-0.43259	0.192584	1.09956	0.748521	0	0
1.55	0.0662375	1.27199	-1.57368	0.679242	0.124978	1.09834	-0.279073	0.0107536	-0.0806955	0.508253	-0.0658915	0	0	0.0263238	-0.108737	-0.253432	0.234651	-0.158607	0	0	-0.444199	0.0480927	-0.062322	0.681777	-0.521094	0.711755	1.0219	0.577845	0	0	0.374487	-0.430287	0.194379	1.09635	0.748741	0	0
1.56	0.0595471	1.27417	-1.56886	0.682323	0.114628	1.09621	-0.282455	0.0080264	-0.0836937	0.518435	-0.0600555	0	0	0.0200833	-0.104662	-0.245501	0.186497	-0.145818	0	0	-0.440225	0.0502798	-0.0615981	0.684974	-0.521916	0.714189	1.01921	0.577019	0	0	0.377278	-0.42811	0.196094	1.09324	0.748645	0	0
1.57	0.0535234	1.27575	-1.56482	0.685384	0.10418	1.09413	-0.286565	0.00506064	-0.086682	0.528599	-0.0525056	0	0	0.0102615	-0.100121	-0.231393	0.135572	-0.146794	0	0	-0.436903	0.0518639	-0.0611767	0.685754	-0.520431	0.71071	1.01625	0.585349	0	0	0.379719	-0.426538	0.197462	1.09086	0.748005	0	0
1.58	0.0467848	1.27679	-1.56056	0.688346	0.0936099	1.09203	-0.291232	0.00244303	-0.0890645	0.538669	-0.0446012	0	0	-0.000657693	-0.096824	-0.215929	0.0906885	-0.154676	0	0	-0.434009	0.0533119	-0.0608472	0.689756	-0.52077	0.715309	1.01371	0.581087	0	0	0.381285	-0.42609	0.198753	1.08972	0.74617	0	0
